<?xml version="1.0" encoding="utf-8"?><svg xml:space="preserve" viewBox="0 0 100 100" y="0" x="0" xmlns="http://www.w3.org/2000/svg" id="圖層_1" version="1.1" width="128px" height="128px" xmlns:xlink="http://www.w3.org/1999/xlink" style="width:100%;height:100%;background-size:initial;background-repeat-y:initial;background-repeat-x:initial;background-position-y:initial;background-position-x:initial;background-origin:initial;background-image:initial;background-color:rgb(255, 255, 255);background-clip:initial;background-attachment:initial;animation-play-state:paused" ><g class="ldl-scale" style="transform-origin:50% 50%;transform:scale(0.8);animation-play-state:paused" ><path d="M5 27.5L43.971 50H95V27.5z" fill="#0038a8" style="fill:rgb(0, 56, 168);animation-play-state:paused" ></path>
<path d="M5 72.5h90V50H43.971z" fill="#ce1126" style="fill:rgb(206, 17, 38);animation-play-state:paused" ></path>
<path d="M5 27.5v45L43.971 50z" fill="#f7f7f7" style="fill:rgb(247, 247, 247);animation-play-state:paused" ></path>
<path fill="#fcd116" d="M23.489 49.706a4.035 4.035 0 0 0-.029-.293l4.039-.532-.477-.477-3.609.718a4.486 4.486 0 0 0-.672-1.622l3.06-2.045v-.674l-3.232 2.48a4.098 4.098 0 0 0-.187-.227l3.335-2.925v-.826h-.826l-2.925 3.335a4.505 4.505 0 0 0-.227-.187l2.48-3.232h-.674l-2.045 3.06a4.486 4.486 0 0 0-1.622-.672l.718-3.609-.477-.478-.532 4.039a4.686 4.686 0 0 0-.293-.029l.29-4.426L19 40.5l-.584.584.29 4.426a4.035 4.035 0 0 0-.293.029l-.532-4.039-.477.477.718 3.609a4.486 4.486 0 0 0-1.622.672l-2.045-3.06h-.674l2.48 3.232c-.078.06-.154.122-.227.187l-2.925-3.335h-.826v.826l3.335 2.925a4.505 4.505 0 0 0-.187.227l-3.232-2.48v.674l3.06 2.045a4.486 4.486 0 0 0-.672 1.622l-3.609-.718-.478.478 4.039.532a4.686 4.686 0 0 0-.029.293l-4.426-.29L9.5 50l.584.584 4.426-.29c.006.099.016.196.029.293l-4.039.532.477.477 3.609-.718c.117.59.349 1.139.672 1.622l-3.06 2.045v.674l3.232-2.48c.06.078.122.154.187.227l-3.335 2.925v.826h.826l2.925-3.335c.074.065.149.127.227.187l-2.48 3.232h.674l2.045-3.06a4.486 4.486 0 0 0 1.622.672l-.718 3.609.477.477.532-4.039c.097.013.194.022.293.029l-.29 4.426.585.585.584-.584-.29-4.426c.099-.006.196-.016.293-.029l.532 4.039.477-.477-.718-3.609a4.486 4.486 0 0 0 1.622-.672l2.045 3.06h.674l-2.48-3.232c.078-.06.154-.122.227-.187l2.925 3.335h.826v-.826l-3.335-2.925c.065-.074.127-.149.187-.227l3.232 2.48v-.674l-3.06-2.045a4.486 4.486 0 0 0 .672-1.622l3.609.718.477-.477-4.039-.532c.013-.097.022-.194.029-.293l4.426.29L28.5 50l-.584-.584-4.427.29z" style="fill:rgb(252, 209, 22);animation-play-state:paused" ></path>
<path d="M37.78 49.412l-.036-1.79-1.082 1.427-1.713-.518L35.971 50l-1.022 1.469 1.713-.518 1.082 1.427.036-1.79L39.471 50z" fill="#fcd116" style="fill:rgb(252, 209, 22);animation-play-state:paused" ></path>
<path d="M9 65.572l-.761-1.62-.408 1.743-1.776.223 1.531.927-.336 1.758 1.355-1.171 1.568.864-.695-1.65 1.306-1.225z" fill="#fcd116" style="fill:rgb(252, 209, 22);animation-play-state:paused" ></path>
<path d="M7.831 34.305l.408 1.743.761-1.62 1.784.151-1.306-1.225.695-1.65-1.568.864-1.355-1.171.336 1.758-1.531.927z" fill="#fcd116" style="fill:rgb(252, 209, 22);animation-play-state:paused" ></path>
<metadata xmlns:d="https://loading.io/stock/" style="animation-play-state:paused" ><d:name style="animation-play-state:paused" >the philippines</d:name>


<d:tags style="animation-play-state:paused" >the philippines,national flag,country,nation symbol</d:tags>


<d:license style="animation-play-state:paused" >by</d:license>


<d:slug style="animation-play-state:paused" >5wiadh</d:slug></metadata></g><!-- generated by https://loading.io/ --></svg>